<?xml version="1.0" standalone="no"?>
<!DOCTYPE svg PUBLIC "-//W3C//DTD SVG 20010904//EN"
 "http://www.w3.org/TR/2001/REC-SVG-20010904/DTD/svg10.dtd">
<svg version="1.0" xmlns="http://www.w3.org/2000/svg"
 width="306.000000pt" height="306.000000pt" viewBox="0 0 306.000000 306.000000"
 preserveAspectRatio="xMidYMid meet">
<metadata>
Created by potrace 1.16, written by Peter Selinger 2001-2019
</metadata>
<g transform="translate(0.000000,306.000000) scale(0.100000,-0.100000)"
fill="#000000" stroke="none">
<path d="M1104 3039 c13 -19 13 -23 0 -37 -9 -8 -13 -23 -11 -33 3 -10 -1 -23
-9 -30 -17 -14 -20 -254 -4 -264 6 -3 10 -17 10 -31 0 -14 5 -23 13 -22 6 2
12 -4 13 -12 2 -27 16 -50 27 -43 6 3 7 1 3 -5 -4 -7 -2 -12 5 -12 7 0 3 -9
-9 -20 -12 -11 -30 -20 -41 -20 -14 0 -19 -5 -15 -15 5 -11 11 -12 27 -4 14 6
12 2 -6 -12 -16 -12 -33 -34 -39 -48 -10 -23 -12 -24 -16 -6 -7 34 -22 41 -22
11 0 -15 7 -34 15 -43 10 -9 13 -23 9 -37 -12 -41 -24 -40 -24 1 0 23 -4 45
-10 48 -6 4 -10 -15 -10 -50 0 -35 4 -54 10 -50 6 3 10 -3 10 -14 0 -12 -4
-21 -10 -21 -5 0 -10 -12 -10 -28 0 -16 -8 -32 -20 -40 -18 -11 -22 -9 -33 15
-6 15 -20 36 -29 45 -20 20 -24 48 -8 48 6 0 10 -7 10 -15 0 -8 5 -15 10 -15
6 0 10 -7 10 -15 0 -8 5 -15 10 -15 6 0 10 -7 10 -15 0 -8 5 -15 10 -15 6 0
10 7 10 15 0 8 -4 15 -10 15 -5 0 -10 7 -10 15 0 8 -4 15 -10 15 -5 0 -10 7
-10 15 0 8 -4 15 -10 15 -5 0 -10 7 -10 15 0 13 -3 13 -20 3 -18 -11 -23 -10
-40 12 -11 14 -20 30 -20 36 0 13 -70 81 -70 68 0 -5 -5 -1 -11 9 -5 9 -17 17
-24 17 -8 0 -15 5 -15 11 0 6 -9 9 -20 6 -10 -3 -25 2 -32 10 -8 10 -23 13
-44 10 -21 -4 -34 -1 -37 6 -2 8 -32 12 -93 11 -121 -2 -164 -11 -164 -35 0
-10 5 -19 11 -19 5 0 8 4 5 9 -4 5 20 3 51 -4 32 -7 61 -11 65 -9 5 3 8 0 8
-7 0 -7 10 -9 29 -6 20 4 31 2 35 -8 3 -8 13 -15 23 -15 10 0 27 -7 37 -15 10
-8 23 -12 27 -9 4 2 16 -7 25 -21 9 -14 22 -25 29 -25 28 0 139 -207 128 -237
-4 -10 -2 -14 4 -10 9 6 29 -38 23 -51 0 -1 6 -10 15 -18 8 -9 13 -20 10 -25
-4 -5 -2 -9 3 -9 9 0 33 -44 38 -70 3 -18 74 -80 92 -80 6 0 12 -6 12 -14 0
-19 -20 -32 -20 -14 -1 7 -25 31 -54 53 -44 32 -52 43 -45 57 8 14 6 16 -7 11
-14 -5 -16 -2 -12 15 5 19 3 19 -18 10 -29 -14 -31 -28 -4 -28 20 0 27 -14 11
-24 -5 -3 -14 1 -21 9 -8 10 -31 15 -71 15 -33 0 -59 4 -59 10 0 6 -14 10 -31
10 -17 0 -28 -4 -24 -10 4 -6 -6 -10 -21 -10 -22 0 -25 -3 -16 -12 10 -10 17
-10 32 0 27 16 51 15 44 -2 -3 -8 -13 -12 -25 -9 -10 3 -19 1 -19 -5 0 -6 -22
-21 -50 -34 -42 -19 -50 -27 -50 -50 0 -16 4 -28 9 -28 15 0 23 18 11 25 -6 4
-8 11 -5 16 4 5 13 3 21 -6 9 -8 33 -15 55 -15 21 0 39 -4 39 -10 0 -5 14 -10
30 -10 17 0 30 5 30 10 0 15 56 12 69 -3 11 -14 5 -27 -12 -27 -5 0 -7 6 -4
13 4 10 -3 12 -24 9 -40 -6 -47 -22 -10 -22 16 0 32 -6 34 -12 4 -10 8 -9 16
2 5 8 13 11 17 7 4 -3 1 -13 -6 -22 -7 -9 -10 -19 -6 -23 4 -4 12 2 18 12 8
14 12 16 19 5 14 -23 0 -29 -62 -29 -38 0 -58 -4 -54 -10 4 -6 -10 -10 -34
-10 -23 0 -41 -4 -41 -10 0 -5 -14 -10 -31 -10 -37 0 -30 -16 10 -22 21 -3 28
-1 24 9 -4 9 5 13 29 13 19 0 38 4 44 9 17 17 129 18 147 1 14 -13 7 -15 -59
-12 -60 3 -83 0 -119 -18 -24 -12 -58 -22 -74 -22 -17 -1 -29 -4 -26 -7 2 -4
-11 -8 -28 -9 -17 -2 -36 -7 -41 -12 -13 -13 -86 -13 -86 0 0 6 -18 10 -41 10
-22 0 -38 -4 -35 -9 9 -15 -84 -18 -96 -4 -12 15 -32 17 -23 3 4 -6 -19 1 -51
15 -31 14 -58 25 -61 25 -2 0 -2 4 2 9 3 6 -12 18 -32 28 -45 21 -68 41 -58
51 4 4 10 1 12 -5 3 -7 11 -13 18 -13 7 0 15 -5 17 -12 3 -8 11 -9 24 -3 18 8
18 9 -3 12 -13 3 -23 9 -23 14 0 5 -6 9 -14 9 -8 0 -16 5 -18 11 -3 9 -10 9
-27 0 -18 -10 -21 -18 -16 -42 4 -18 3 -29 -4 -29 -6 0 -11 5 -11 12 0 6 -2 9
-5 7 -2 -3 -1 -18 4 -35 7 -28 8 -28 19 -8 11 21 14 19 80 -46 42 -40 92 -78
128 -95 32 -16 67 -35 76 -43 10 -8 27 -12 40 -9 13 3 32 -1 42 -9 11 -8 41
-14 68 -14 26 0 48 -4 48 -10 0 -6 30 -10 71 -10 44 0 68 4 64 10 -3 6 -34 10
-68 10 l-62 1 33 14 c33 14 92 10 92 -6 0 -5 43 -9 96 -9 71 0 99 4 110 15 18
17 34 20 34 4 0 -5 5 -7 12 -3 7 4 8 3 4 -4 -5 -8 0 -12 13 -12 12 0 21 -4 21
-10 0 -5 9 -10 20 -10 18 0 25 10 21 33 0 4 4 7 9 7 10 0 14 -25 10 -69 -1
-13 3 -21 8 -17 13 8 22 -17 15 -46 -3 -15 -2 -19 4 -11 6 9 12 3 21 -20 6
-17 12 -36 13 -42 1 -5 10 -22 20 -37 10 -14 19 -29 19 -33 0 -3 7 -13 15 -21
8 -9 15 -14 15 -12 0 2 29 -24 64 -57 49 -46 61 -63 52 -74 -5 -7 -12 -9 -14
-3 -1 5 -34 41 -73 79 l-70 70 -23 -18 c-13 -11 -29 -19 -35 -19 -6 0 -12 -4
-12 -10 -1 -5 -2 -16 -3 -22 0 -7 -11 -14 -23 -16 -13 -2 -23 -9 -23 -17 0 -7
-11 -16 -25 -19 -14 -4 -24 -10 -21 -15 7 -10 -129 -76 -155 -74 -10 1 -17 -2
-15 -6 3 -4 -5 -8 -17 -8 -12 -1 -24 3 -28 8 -3 6 -17 9 -30 7 -23 -4 -23 -5
6 -17 l29 -12 -94 -47 c-52 -26 -99 -51 -103 -57 -6 -7 -10 -6 -14 3 -6 14
-33 16 -33 2 0 -5 -5 -10 -11 -10 -14 0 -39 -25 -39 -39 0 -6 -4 -11 -10 -11
-16 0 -12 -17 6 -24 9 -3 12 -2 9 4 -9 14 52 73 66 64 7 -4 -6 -23 -35 -50
-25 -25 -46 -46 -46 -49 -1 -3 -14 -33 -29 -67 -24 -52 -30 -59 -36 -43 -17
48 -19 50 -23 21 -2 -16 1 -32 6 -35 17 -11 21 -52 6 -58 -10 -3 -14 -22 -14
-59 0 -53 0 -54 30 -54 25 0 30 4 30 23 0 13 4 27 9 33 6 5 12 21 15 36 6 36
15 50 27 43 14 -10 11 -38 -4 -32 -10 4 -13 -2 -9 -19 2 -14 0 -24 -7 -24 -6
0 -11 -11 -11 -25 0 -14 5 -25 10 -25 6 0 10 11 10 25 0 14 5 25 10 25 6 0 10
9 10 20 0 11 5 20 10 20 6 0 10 9 10 20 0 11 5 20 10 20 6 0 10 7 10 15 0 8 5
15 10 15 6 0 10 5 10 10 0 14 46 60 60 60 5 0 10 5 10 10 0 6 7 10 15 10 8 0
15 5 15 10 0 6 9 10 20 10 11 0 20 5 20 10 0 6 11 10 25 10 14 0 25 5 25 10 0
6 14 10 30 10 17 0 30 5 30 10 0 6 16 10 36 10 21 0 33 4 29 10 -8 13 -65 13
-65 0 0 -5 -13 -10 -30 -10 -16 0 -30 -5 -30 -11 0 -7 -12 -10 -29 -7 -22 3
-28 1 -23 -10 4 -11 -1 -14 -20 -10 -19 4 -25 1 -21 -9 3 -7 -1 -13 -10 -13
-8 0 -17 -6 -20 -12 -2 -8 -8 -9 -13 -4 -5 5 -4 11 4 13 6 3 10 9 7 13 -7 12
49 41 89 47 17 2 36 10 41 16 6 7 21 12 35 12 14 0 24 5 23 12 -2 9 6 11 25 7
19 -4 32 -1 41 10 8 10 22 13 41 10 15 -4 31 -1 34 5 4 6 23 11 42 11 24 0 34
4 34 16 0 11 6 14 21 9 13 -5 25 -1 32 10 7 9 22 17 35 18 12 0 22 5 22 9 0
15 29 -4 35 -23 8 -25 21 -24 28 1 3 13 0 20 -9 20 -8 0 -14 7 -14 15 0 19 5
19 24 0 13 -13 19 -13 36 -3 11 7 20 18 20 25 0 7 5 13 12 13 6 0 8 3 5 7 -4
3 -18 -4 -32 -17 -19 -17 -28 -21 -36 -13 -8 8 0 17 32 32 23 12 51 21 61 21
12 0 18 7 18 21 0 23 10 21 82 -11 39 -17 39 -18 13 -24 -31 -8 -54 2 -34 16
9 5 3 6 -16 2 -36 -9 -87 -46 -110 -80 -9 -14 -20 -22 -25 -19 -4 3 -18 -15
-30 -40 -24 -50 -34 -55 -45 -23 l-8 23 -4 -24 c-3 -13 1 -27 9 -32 9 -6 12
-28 11 -74 -1 -48 2 -68 12 -71 8 -3 11 -13 8 -21 -5 -12 -3 -14 7 -8 9 5 11
4 6 -3 -4 -7 -2 -12 4 -12 6 0 9 -4 5 -9 -3 -5 -1 -12 5 -16 13 -8 13 -35 0
-35 -5 0 -10 9 -10 20 0 11 -4 20 -10 20 -5 0 -10 7 -10 15 0 8 -4 15 -10 15
-5 0 -10 9 -10 20 0 11 -4 20 -10 20 -6 0 -10 30 -10 69 0 39 -4 73 -10 76 -6
4 -10 -22 -10 -69 0 -44 4 -76 10 -76 6 0 10 -9 10 -20 0 -11 5 -20 10 -20 6
0 10 -7 10 -15 0 -8 5 -15 10 -15 6 0 10 -7 10 -16 0 -8 7 -22 15 -30 13 -13
17 -12 35 6 20 20 47 19 35 -1 -4 -5 -1 -9 4 -9 15 0 14 6 -5 42 -14 27 -14
35 0 77 8 25 14 53 13 61 -4 31 17 23 27 -10 l10 -35 4 38 c2 24 8 37 18 37 8
0 14 5 14 10 0 6 9 10 20 10 11 0 20 5 20 10 0 6 12 10 26 10 14 0 23 4 19 10
-8 13 -45 13 -45 0 0 -5 -9 -10 -19 -10 -11 0 -21 -6 -24 -12 -2 -8 -8 -9 -13
-4 -5 5 -4 11 4 13 6 3 9 10 6 15 -4 7 -2 8 4 4 7 -4 12 -3 12 3 0 6 7 7 17 4
12 -5 14 -3 8 7 -5 8 -4 11 3 6 5 -3 12 -1 14 5 3 8 9 6 20 -5 19 -18 38 -21
38 -6 0 6 5 10 10 10 6 0 10 -19 10 -42 0 -32 3 -39 10 -28 5 8 10 29 10 47 0
17 5 35 10 38 6 3 10 19 10 36 0 30 17 40 26 14 3 -8 -1 -22 -10 -30 -21 -21
-21 -98 -1 -115 9 -7 12 -22 9 -39 -4 -18 0 -32 10 -40 10 -8 14 -22 10 -36
-3 -13 0 -28 8 -36 8 -7 13 -23 10 -34 -2 -12 3 -29 11 -37 9 -9 13 -25 10
-41 -3 -15 0 -34 7 -42 17 -20 17 -154 1 -165 -7 -4 -11 -16 -9 -27 3 -22 -31
-103 -44 -103 -5 0 -6 -5 -2 -12 4 -7 3 -8 -4 -4 -7 4 -12 1 -12 -8 0 -21 -10
-20 -26 2 -13 16 -13 16 -14 0 0 -10 -4 -18 -10 -18 -5 0 -10 -9 -10 -20 0
-11 5 -20 10 -20 6 0 10 7 10 15 0 8 7 15 17 15 14 0 14 -3 -3 -22 -10 -13
-23 -26 -28 -29 -10 -8 -1 -39 12 -39 10 0 137 123 168 162 12 15 19 30 15 34
-3 4 0 3 8 -1 11 -6 13 -4 8 8 -4 11 -1 17 8 17 8 0 15 -7 15 -15 0 -8 -4 -15
-10 -15 -5 0 -10 -7 -10 -15 0 -8 -7 -15 -16 -15 -14 0 -15 -2 -3 -17 13 -15
14 -15 17 0 2 10 8 17 13 17 5 0 9 7 9 15 0 8 5 15 10 15 6 0 10 7 10 15 0 8
5 15 10 15 6 0 10 9 10 20 0 11 5 20 10 20 6 0 10 16 10 35 0 19 -4 35 -10 35
-5 0 -10 -16 -10 -35 0 -19 -4 -35 -10 -35 -5 0 -10 -9 -10 -20 0 -11 -4 -20
-10 -20 -13 0 -13 27 1 36 6 3 8 16 5 29 -4 14 0 28 9 35 11 9 15 32 15 81 0
39 4 69 10 69 6 0 10 36 10 88 0 60 -3 82 -10 72 -5 -8 -10 -46 -10 -84 0 -56
-3 -67 -12 -58 -15 15 -12 135 3 140 5 2 9 33 9 68 0 41 4 63 10 59 6 -4 10 7
10 24 0 17 -4 31 -10 31 -5 0 -10 -11 -10 -24 0 -14 -5 -28 -10 -31 -5 -3 -10
-32 -10 -63 -1 -45 -3 -53 -11 -39 -6 11 -8 37 -5 60 4 23 7 54 8 70 0 15 7
27 14 27 9 0 14 12 14 35 0 19 5 35 10 35 6 0 10 -12 10 -26 0 -26 20 -54 39
-54 6 0 11 5 11 10 0 6 -7 10 -15 10 -8 0 -15 5 -15 10 0 13 16 13 42 -1 l21
-11 -24 -19 c-20 -15 -21 -19 -6 -19 9 0 17 5 17 10 0 20 20 9 63 -32 49 -48
79 -120 59 -140 -9 -9 -12 -3 -12 25 0 20 -4 37 -10 37 -12 0 -14 -77 -2 -82
17 -6 22 -66 7 -78 -22 -18 -19 -50 5 -50 11 0 20 5 20 11 0 6 9 8 23 3 21 -6
21 -6 5 13 -19 21 -24 38 -9 28 6 -3 14 3 20 12 9 17 11 17 25 -2 15 -19 15
-19 16 -1 0 10 -7 24 -15 30 -10 7 -12 16 -5 26 7 11 11 8 21 -15 12 -28 13
-29 16 -7 3 12 9 22 14 22 5 0 9 9 9 20 0 11 -4 20 -10 20 -5 0 -10 -9 -10
-20 0 -23 -15 -27 -23 -6 -3 8 1 17 10 20 11 5 14 14 9 36 -3 17 -1 30 4 30
18 0 22 41 6 65 -9 13 -13 31 -10 40 7 16 -31 101 -49 112 -17 10 -142 12
-148 2 -9 -15 -322 -15 -327 0 -2 6 -24 11 -48 11 -24 0 -44 5 -44 10 0 6 -9
10 -20 10 -26 0 -26 16 1 23 13 3 22 0 26 -10 4 -11 14 -13 38 -9 22 5 36 2
45 -9 18 -22 320 -23 320 -1 0 11 9 13 34 9 19 -3 36 -1 40 6 4 6 14 11 22 11
8 0 12 -4 9 -10 -3 -6 5 -10 19 -10 13 0 26 -6 29 -12 2 -8 8 -9 13 -4 5 5 4
11 -3 13 -18 7 -16 23 3 23 20 0 49 29 39 38 -4 4 -10 1 -12 -5 -3 -7 -13 -13
-24 -13 -10 0 -19 -4 -19 -10 0 -5 -6 -10 -13 -10 -8 0 -14 7 -14 15 0 9 5 14
12 12 16 -7 48 20 52 44 2 14 -3 23 -17 26 -11 3 -20 9 -20 14 0 5 -23 9 -51
9 -31 0 -48 -4 -44 -10 4 -7 -50 -10 -154 -10 -101 0 -161 -4 -161 -10 0 -13
307 -13 315 0 3 6 24 10 45 10 31 0 38 -3 34 -15 -5 -12 -15 -14 -40 -9 -21 4
-40 2 -49 -6 -9 -8 -57 -11 -147 -11 -163 2 -169 2 -161 14 4 6 -5 8 -21 5
-35 -7 -96 11 -96 29 0 7 9 13 19 13 11 0 23 5 26 10 4 6 -7 10 -24 10 -17 0
-31 -5 -31 -11 0 -6 -12 -8 -29 -6 -37 6 -53 16 -46 28 10 14 38 11 32 -4 -4
-10 2 -13 19 -9 34 6 41 22 10 22 -14 0 -26 5 -26 10 0 6 -7 10 -15 10 -8 0
-15 -4 -15 -10 0 -16 -22 -12 -59 11 -23 14 -31 23 -23 31 7 7 17 4 33 -11 22
-20 39 -27 39 -15 0 8 -27 34 -35 34 -9 0 -65 56 -65 65 0 4 -7 13 -15 22 -20
19 -33 9 -16 -11 7 -8 10 -20 6 -26 -9 -15 -28 -1 -21 16 3 7 -3 19 -13 26
-22 16 -80 128 -74 145 2 6 0 14 -6 17 -6 4 -8 13 -5 21 3 8 -2 35 -11 60 -19
48 -17 137 4 172 8 13 10 -10 11 -89 0 -65 4 -108 10 -108 6 0 10 43 10 110 0
67 -4 110 -10 110 -14 0 -13 45 2 73 26 50 28 58 23 67 -4 6 -1 10 5 10 6 0 8
5 4 12 -4 6 -3 8 3 5 6 -4 20 12 31 36 21 44 51 77 74 81 7 1 20 6 28 11 42
27 65 36 68 26 2 -6 18 -11 35 -11 32 0 28 15 -5 22 -13 2 -15 7 -8 18 9 13
12 13 24 -2 9 -13 27 -18 57 -18 32 0 40 3 29 10 -8 5 -27 10 -42 10 -16 0
-28 4 -28 9 0 12 27 21 44 15 8 -3 24 0 36 6 29 16 209 17 235 2 16 -9 -8 -11
-112 -12 -82 0 -133 -4 -133 -10 0 -6 52 -10 135 -10 74 0 135 4 135 9 0 11
46 20 71 14 32 -9 21 -23 -18 -23 -21 0 -45 -5 -53 -10 -11 -7 2 -10 43 -10
31 0 57 4 57 9 0 18 33 21 51 5 12 -11 27 -14 44 -10 16 4 24 3 21 -3 -9 -15
12 -24 40 -17 16 4 22 11 18 19 -5 8 -3 8 7 -1 12 -11 12 -14 -1 -22 -12 -8
-11 -11 8 -16 28 -8 28 -20 0 -27 -12 -4 -19 -9 -15 -13 11 -11 53 15 67 41
11 21 9 27 -14 50 -14 14 -26 22 -26 16 0 -5 7 -16 15 -25 17 -17 20 -46 5
-46 -5 0 -10 8 -10 18 0 26 -92 102 -125 102 -8 0 -15 5 -15 11 0 5 -8 9 -17
8 -25 -4 -93 20 -93 33 0 6 -10 8 -23 6 -13 -2 -29 1 -35 9 -10 11 -8 13 16
13 48 0 67 37 40 80 -10 16 -10 24 0 40 26 43 1 155 -41 182 -6 4 -8 10 -5 14
8 8 38 -20 38 -35 0 -6 5 -11 10 -11 6 0 10 -9 10 -20 0 -11 5 -20 10 -20 6 0
10 9 10 20 0 11 -4 20 -10 20 -5 0 -10 5 -10 10 0 19 -47 58 -66 57 -13 -1
-18 4 -17 17 0 10 -9 29 -22 42 -25 25 -45 31 -45 14 0 -5 5 -10 11 -10 14 0
43 -29 36 -37 -3 -3 -13 2 -22 11 -9 9 -22 16 -30 16 -7 0 -15 7 -19 15 -3 8
-15 15 -26 15 -11 0 -20 5 -20 10 0 14 37 13 42 -2 3 -8 11 -9 24 -3 18 8 18
9 -3 12 -13 3 -23 9 -23 14 0 19 -27 8 -56 -22 -19 -21 -25 -33 -16 -36 6 -3
12 -11 12 -19 0 -8 5 -14 10 -14 6 0 10 -9 10 -20 0 -11 5 -20 10 -20 6 0 10
-14 10 -31 0 -17 4 -28 10 -24 6 4 10 -12 10 -40 0 -29 6 -52 16 -62 14 -14
12 -19 -22 -54 -42 -43 -72 -41 -89 6 -13 36 -50 78 -197 224 -91 90 -123 129
-142 173 -14 32 -22 57 -18 57 30 -5 32 3 32 141 0 87 -4 140 -10 140 -6 0
-10 -52 -10 -137 0 -101 -3 -134 -11 -126 -7 7 -11 56 -10 138 2 138 6 129
-46 108 -7 -3 -13 0 -13 6 0 6 -5 11 -11 11 -6 0 -4 -9 5 -21z m91 -546 c14
-21 15 -30 6 -46 -11 -17 -10 -18 8 -12 23 7 77 -38 66 -55 -3 -5 3 -14 13
-19 27 -15 66 -100 63 -140 -2 -30 0 -33 21 -27 67 18 71 19 64 7 -4 -6 -17
-11 -28 -11 -12 0 -30 -8 -41 -17 -18 -17 -19 -17 -33 1 -7 10 -11 22 -9 27 3
4 -1 10 -7 12 -9 4 -10 8 -2 14 19 14 25 43 9 43 -8 0 -15 9 -15 20 0 11 -5
20 -11 20 -6 0 -9 9 -6 19 3 14 1 18 -9 14 -15 -6 -19 -33 -5 -33 5 0 11 -9
14 -20 4 -17 0 -20 -24 -20 -16 0 -29 -5 -29 -11 0 -7 14 -10 35 -7 25 3 35 0
35 -9 0 -36 -65 -20 -113 27 -17 16 -28 33 -24 36 4 4 16 -3 27 -16 14 -16 25
-20 37 -15 17 8 17 8 -1 13 -33 7 -46 29 -47 79 0 36 -3 43 -9 28 -5 -11 -9
-33 -9 -49 -1 -24 -3 -27 -16 -16 -15 13 -11 62 7 68 4 2 8 15 8 28 0 13 5 24
10 24 6 0 10 5 10 11 0 6 -7 9 -15 6 -11 -5 -12 -1 -5 18 7 19 6 23 -5 18 -10
-3 -15 -21 -16 -52 -1 -43 -1 -44 -10 -16 -10 34 5 85 26 85 7 0 21 -12 30
-27z"/>
<path d="M2185 2940 c3 -5 15 -10 26 -10 10 0 19 -4 19 -9 0 -8 -56 -36 -73
-36 -5 0 -22 -13 -38 -30 -26 -25 -33 -28 -49 -17 -26 16 -35 15 -21 -2 18
-21 -24 -63 -45 -45 -17 14 -18 5 -2 -20 9 -15 7 -24 -11 -50 -12 -17 -27 -31
-32 -31 -5 0 -9 -5 -9 -11 0 -5 5 -7 11 -3 8 4 8 0 0 -15 -7 -11 -17 -21 -22
-21 -7 0 -9 -10 -5 -24 3 -14 2 -27 -4 -31 -5 -3 -7 -13 -4 -23 5 -14 4 -15
-5 -2 -13 19 -14 55 -2 78 5 9 16 32 23 50 7 18 18 30 24 28 8 -3 10 3 6 16
-4 17 -2 20 11 15 11 -4 14 -2 10 9 -3 7 -7 14 -10 14 -9 0 -33 -29 -33 -39 0
-6 -4 -11 -10 -11 -5 0 -10 -9 -10 -21 0 -11 -4 -17 -10 -14 -6 4 -10 -7 -10
-25 0 -18 -4 -29 -10 -25 -6 4 -10 -10 -10 -34 0 -23 4 -41 9 -41 16 0 19 -74
3 -98 -8 -12 -12 -34 -9 -49 3 -15 3 -33 0 -40 -9 -24 -23 -2 -23 37 0 21 -4
42 -10 45 -5 3 -10 -1 -10 -9 0 -9 -4 -16 -10 -16 -5 0 -10 -23 -10 -51 0 -31
-4 -48 -10 -44 -14 9 -13 -41 2 -64 9 -14 8 -23 -5 -42 -24 -33 -21 -41 11
-37 19 2 27 -1 26 -13 -1 -11 6 -14 27 -11 17 3 29 0 29 -7 0 -6 9 -11 20 -11
11 0 20 -5 20 -11 0 -5 5 -7 10 -4 6 3 13 -1 16 -9 3 -9 12 -16 19 -16 7 0 15
-6 18 -12 2 -7 8 -9 13 -5 5 4 3 11 -4 16 -7 4 -11 19 -10 33 1 15 6 24 11 21
5 -3 6 3 3 14 -4 12 -1 25 9 33 13 11 15 8 15 -18 0 -17 -5 -32 -11 -34 -6 -2
-9 -13 -6 -23 5 -19 5 -19 12 3 4 12 11 22 16 22 12 0 12 67 0 72 -15 5 -26
205 -13 231 6 12 13 31 15 42 3 11 5 -43 6 -120 1 -77 6 -147 11 -155 6 -10
10 39 10 148 0 94 -4 161 -9 158 -10 -6 -21 71 -13 91 8 24 22 2 23 -35 1 -20
5 -48 9 -62 6 -18 8 -8 9 39 1 47 -3 67 -15 75 -19 15 -7 52 30 89 14 14 23
27 20 30 -3 3 6 13 21 24 14 10 38 28 53 40 29 25 42 29 42 13 0 -5 8 -10 18
-10 14 0 13 3 -6 18 l-23 18 20 19 c20 18 22 18 42 -1 22 -19 22 -19 14 6 -7
22 -6 23 9 11 14 -12 16 -11 16 3 0 11 -9 16 -27 16 -26 0 -26 1 -7 15 19 14
19 14 -2 15 -12 0 -27 -6 -33 -14 -12 -14 -51 -10 -51 5 0 5 -12 9 -26 9 -14
0 -23 -4 -19 -10z"/>
<path d="M835 1440 c-4 -6 8 -10 29 -10 19 0 38 -4 41 -10 4 -6 -10 -10 -35
-10 -25 0 -39 -4 -35 -10 3 -5 35 -10 71 -10 36 0 64 -4 64 -10 0 -6 -29 -10
-66 -10 -51 0 -70 -4 -79 -17 -7 -10 -19 -14 -29 -10 -22 9 -11 27 15 27 10 0
19 5 19 10 0 6 -12 10 -26 10 -14 0 -23 -4 -19 -10 3 -5 -1 -10 -9 -10 -9 0
-16 -4 -16 -10 0 -5 -5 -10 -11 -10 -14 0 -39 -26 -39 -40 0 -6 -4 -8 -10 -5
-5 3 -10 0 -10 -9 0 -8 6 -16 13 -19 9 -3 6 -15 -11 -46 -12 -24 -19 -47 -16
-53 3 -5 -2 -18 -11 -28 -9 -10 -14 -24 -10 -29 3 -6 -1 -14 -9 -17 -9 -3 -16
-12 -16 -20 0 -8 -4 -14 -10 -14 -5 0 -10 7 -10 15 0 8 5 15 10 15 13 0 13 37
0 45 -6 3 -10 -5 -10 -19 0 -13 -6 -26 -12 -29 -9 -3 -2 -16 18 -37 18 -18 38
-30 45 -27 10 4 7 8 -8 12 -26 8 -31 25 -8 25 8 0 15 4 15 9 0 17 95 100 104
91 4 -4 -7 -22 -25 -38 -19 -17 -31 -34 -27 -38 4 -4 21 7 37 25 16 17 37 31
47 31 16 0 16 1 -2 15 -19 15 -19 15 1 28 31 19 118 26 128 10 5 -8 28 -13 64
-13 31 0 53 3 50 6 -3 4 -2 15 4 25 6 12 6 19 0 19 -5 0 -12 -6 -15 -12 -4 -9
-5 -8 -4 2 2 27 -14 79 -28 91 -7 6 -10 17 -7 24 8 22 -19 74 -35 67 -8 -2
-17 -1 -21 4 -20 28 -84 44 -96 24z"/>
</g>
</svg>
