<svg width="30" height="30" viewBox="0 0 30 30" fill="none" xmlns="http://www.w3.org/2000/svg">
<path d="M26.7857 0H3.21429C1.43973 0 0 1.43973 0 3.21429V26.7857C0 28.5603 1.43973 30 3.21429 30H26.7857C28.5603 30 30 28.5603 30 26.7857V3.21429C30 1.43973 28.5603 0 26.7857 0ZM6.16071 17.6786C5.71875 17.6786 5.35714 17.317 5.35714 16.875V13.125C5.35714 12.683 5.71875 12.3214 6.16071 12.3214H23.8393C24.2812 12.3214 24.6429 12.683 24.6429 13.125V16.875C24.6429 17.317 24.2812 17.6786 23.8393 17.6786H6.16071Z" fill="#7B6960"/>
</svg>
