<svg width="32" height="17" viewBox="0 0 32 17" fill="none" xmlns="http://www.w3.org/2000/svg">
<path d="M1.14286 3.12245H30.8571C31.4884 3.12245 32 2.81181 32 2.42857V0.693878C32 0.31064 31.4884 0 30.8571 0H1.14286C0.511643 0 0 0.31064 0 0.693878V2.42857C0 2.81181 0.511643 3.12245 1.14286 3.12245ZM1.14286 10.0612H30.8571C31.4884 10.0612 32 9.75058 32 9.36735V7.63265C32 7.24942 31.4884 6.93878 30.8571 6.93878H1.14286C0.511643 6.93878 0 7.24942 0 7.63265V9.36735C0 9.75058 0.511643 10.0612 1.14286 10.0612ZM1.14286 17H30.8571C31.4884 17 32 16.6894 32 16.3061V14.5714C32 14.1882 31.4884 13.8776 30.8571 13.8776H1.14286C0.511643 13.8776 0 14.1882 0 14.5714V16.3061C0 16.6894 0.511643 17 1.14286 17Z" fill="black"/>
</svg>
