<svg width="29" height="19" viewBox="0 0 29 19" fill="none" xmlns="http://www.w3.org/2000/svg">
<path d="M28.4917 8.65497C25.8403 3.55825 20.5912 0.109863 14.5809 0.109863C8.5706 0.109863 3.32007 3.56066 0.670118 8.65545C0.558273 8.87342 0.5 9.11423 0.5 9.35847C0.5 9.60271 0.558273 9.84352 0.670118 10.0615C3.32154 15.1582 8.5706 18.6066 14.5809 18.6066C20.5912 18.6066 25.8418 15.1558 28.4917 10.061C28.6036 9.84304 28.6618 9.60222 28.6618 9.35799C28.6618 9.11375 28.6036 8.87293 28.4917 8.65497ZM14.5809 16.2945C13.1884 16.2945 11.8272 15.8877 10.6694 15.1255C9.51164 14.3634 8.60925 13.2801 8.07637 12.0126C7.54349 10.7452 7.40407 9.35053 7.67573 8.00503C7.94738 6.65952 8.61792 5.4236 9.60255 4.45354C10.5872 3.48349 11.8417 2.82287 13.2074 2.55523C14.5731 2.2876 15.9887 2.42496 17.2752 2.94995C18.5617 3.47494 19.6612 4.36398 20.4349 5.50464C21.2085 6.64531 21.6214 7.98636 21.6214 9.35823C21.6218 10.2692 21.44 11.1714 21.0864 12.0132C20.7327 12.8549 20.2141 13.6197 19.5603 14.2639C18.9064 14.9081 18.1301 15.419 17.2757 15.7674C16.4213 16.1158 15.5056 16.2949 14.5809 16.2945ZM14.5809 4.73405C14.162 4.73981 13.7457 4.80122 13.3435 4.9166C13.6751 5.36056 13.8342 5.9069 13.792 6.45653C13.7498 7.00616 13.509 7.52269 13.1134 7.91245C12.7178 8.30221 12.1935 8.53938 11.6356 8.58096C11.0777 8.62254 10.5232 8.46577 10.0726 8.13908C9.81597 9.07046 9.86229 10.0577 10.205 10.9618C10.5477 11.8658 11.1696 12.6413 11.9831 13.1789C12.7966 13.7166 13.7607 13.9894 14.7398 13.9589C15.7189 13.9284 16.6636 13.5962 17.441 13.0091C18.2185 12.4219 18.7894 11.6093 19.0735 10.6857C19.3577 9.76215 19.3406 8.77403 19.0249 7.86046C18.7091 6.94689 18.1105 6.15388 17.3133 5.59304C16.5161 5.0322 15.5605 4.73177 14.5809 4.73405Z" fill="black"/>
</svg>
