<svg version="1.1" id="圖層_1" xmlns="http://www.w3.org/2000/svg" x="0" y="0" viewBox="0 0 100 100" xml:space="preserve" preserveAspectRatio="xMidYMid" width="200" height="200" xmlns:xlink="http://www.w3.org/1999/xlink" style="margin-top:0px;margin-right:0px;margin-bottom:0px;margin-left:0px;display:block;shape-rendering:auto;background-position-x:0%;background-position-y:0%;background-size:auto;background-origin:padding-box;background-clip:border-box;background:scroll rgba(0, 0, 0, 0) none  repeat;width:200px;height:200px;;animation:none"><g class="ldl-scale" style="transform-origin:50px 50px;transform:matrix(0.8, 0, 0, 0.8, 0, 0);;animation:none"><g class="ldl-ani"><g class="ldl-layer"><g class="ldl-ani" style="transform-box:view-box;transform-origin:50px 80px;transform:matrix(1, 0, 0, 0.927521, 0, 0);animation-duration:1s;animation-timing-function:linear;animation-delay:-0.75s;animation-iteration-count:infinite;animation-direction:normal;animation-fill-mode:forwards;animation-play-state:paused;animation-name:animate;animation-timeline:auto;animation-range-start:normal;animation-range-end:normal;;animation:none"><circle cx="50" cy="50" r="40" fill="#333" style="fill:rgba(101, 74, 74, 0);;animation:none"></circle></g></g>
<g class="ldl-layer"><g class="ldl-ani" style="transform-box:view-box;transform-origin:50px 80px;transform:matrix(1, 0, 0, 1, 0, 0);animation-duration:1s;animation-timing-function:linear;animation-delay:-1s;animation-iteration-count:infinite;animation-direction:normal;animation-fill-mode:forwards;animation-play-state:paused;animation-name:animate;animation-timeline:auto;animation-range-start:normal;animation-range-end:normal;;animation:none"><path d="M62.222 56.944h-4.583a2.837 2.837 0 0 1-2.837-2.837v-.905c0-.782.634-1.416 1.416-1.416.843 0 1.604-.608 1.694-1.447a1.628 1.628 0 0 0-1-1.685c2.776-2.404 4.57-6.22 4.57-10.518 0-7.275-4.946-10.637-11.287-10.637-6.341 0-11.677 3.362-11.677 10.637 0 4.298 1.795 8.113 4.57 10.518a1.628 1.628 0 0 0-1 1.685c.09.838.851 1.447 1.694 1.447.782 0 1.416.634 1.416 1.416v.905a2.837 2.837 0 0 1-2.837 2.837h-4.583a2.698 2.698 0 0 0-2.698 2.698v10.476h1.704v1.527c0 .472.383.854.854.854h24.725a.854.854 0 0 0 .854-.854v-1.527h1.704V59.643a2.7 2.7 0 0 0-2.699-2.699z" fill="#fff" style="fill:rgb(49, 36, 30);;animation:none"></path></g></g>
<metadata xmlns:d="https://loading.io/stock/"><d:name>stamp</d:name>
<d:tags>stamp,seal,chop,wax,inkpad,signet,affix,sign,contract,certificate,stationery</d:tags>
<d:license>by</d:license>
<d:slug>s919ez</d:slug></metadata></g></g>
<STYLE type="text/css">@keyframes animate { 0.00% {transform: translate(0.00px,0.00px) rotate(0.00deg) scale(1.00, 1.00) skew(0deg, 0.00deg) ;opacity: 1.00;}2.00% {animation-timing-function: cubic-bezier(0.20,0.39,0.50,0.97);transform: translate(0.00px,-1.08px) rotate(0.00deg) ;}36.00% {animation-timing-function: cubic-bezier(0.50,0.03,0.80,0.61);transform: translate(0.00px,-10.00px) rotate(0.00deg) ;}72.00% {transform: translate(0.00px,-0.12px) rotate(0.00deg) ;}74.00% {animation-timing-function: cubic-bezier(0.24,0.43,0.48,0.91);transform: translate(0.00px,0.00px) rotate(0.00deg) scale(1.00, 0.95) ;}86.00% {animation-timing-function: cubic-bezier(0.53,0.08,0.77,0.57);transform: translate(0.00px,0.00px) rotate(0.00deg) scale(1.00, 0.80) ;}100.00% {animation-timing-function: cubic-bezier(0.53,0.08,0.77,0.57);transform: translate(0.00px,0.00px) rotate(0.00deg) scale(1.00, 1.00) ;} }</STYLE><!-- [ldio] generated by https://loading.io --></svg>