<svg width="18" height="25" viewBox="0 0 18 25" fill="none" xmlns="http://www.w3.org/2000/svg">
<path d="M10.0205 1.07863C9.63281 -0.326643 7.60645 -0.392072 7.16699 1.07863C4.8833 8.78176 0 10.875 0 16.3042C0 21.1109 3.84375 25 8.59375 25C13.3438 25 17.1875 21.1109 17.1875 16.3042C17.1875 10.8477 12.3149 8.81691 10.0205 1.07863ZM8.59375 21.875C5.57861 21.875 3.125 19.4214 3.125 16.4063C3.125 15.9746 3.47461 15.625 3.90625 15.625C4.33789 15.625 4.6875 15.9746 4.6875 16.4063C4.6875 18.5601 6.43994 20.3125 8.59375 20.3125C9.02539 20.3125 9.375 20.6621 9.375 21.0938C9.375 21.5254 9.02539 21.875 8.59375 21.875Z" fill="black"/>
</svg>
